# xmcd CD database file generated by Grip 2.96
# 
# Track frame offsets:
#       150
#       14669
#       29382
#       43713
#       57694
#       70597
#       81413
#       107270
#       120166
#       130445
#       143200
#       154968
#       169157
#       182543
#       196146
#       210217
#       222202
#       237334
#       250761
#       265036
# 
# Disc length: 3720 seconds
# 
# Revision: 0
# Processed by: cddbd v1.4PL0 Copyright (c) Steve Scherf et al.
# Submitted via: Grip 2.96
# 
DISCID=160e8614
DTITLE=Mahalia Jackson - Portrait
DYEAR=1900
DGENRE=
TTITLE0=Come To Jesus
TTITLE1=City Called Heaven
TTITLE2=I Bow On My Knees
TTITLE3=Hands Of God
TTITLE4=It Is Not Secret
TTITLE5=Beautiful Tomorrow
TTITLE6=In The Upper Room
TTITLE7=He's My Light
TTITLE8=Run All The Way
TTITLE9=What Then
TTITLE10=Nobody Knows
TTITLE11=God's Gonna Separate The Wheat From The Tares
TTITLE12=Oh, My Lord
TTITLE13=(I'm Going To) Wait Until My Changes Come
TTITLE14=I Have A Friend
TTITLE15=Tired
TTITLE16=Since The Fire Started Burning In My Soul
TTITLE17=Jesus Is With Me
TTITLE18=Bless This House
TTITLE19=I Gave Up Everything To Follow Him
EXTD=
EXTT0=
EXTT1=
EXTT2=
EXTT3=
EXTT4=
EXTT5=
EXTT6=
EXTT7=
EXTT8=
EXTT9=
EXTT10=
EXTT11=
EXTT12=
EXTT13=
EXTT14=
EXTT15=
EXTT16=
EXTT17=
EXTT18=
EXTT19=
PLAYORDER=
